<svg width="260" height="60" viewBox="0 0 260 60" fill="none" xmlns="http://www.w3.org/2000/svg">
<path d="M146.737 39C146.395 39 146.12 38.9052 145.912 38.7156C145.722 38.507 145.627 38.232 145.627 37.8907V24.5502C145.627 24.2089 145.722 23.9434 145.912 23.7538C146.12 23.5452 146.395 23.4409 146.737 23.4409C147.059 23.4409 147.315 23.5452 147.505 23.7538C147.713 23.9434 147.817 24.2089 147.817 24.5502V37.8907C147.817 38.232 147.713 38.507 147.505 38.7156C147.315 38.9052 147.059 39 146.737 39ZM146.708 20.4827C146.291 20.4827 145.931 20.331 145.627 20.0276C145.324 19.7241 145.172 19.3544 145.172 18.9182C145.172 18.4441 145.324 18.0744 145.627 17.8089C145.95 17.5244 146.319 17.3822 146.737 17.3822C147.135 17.3822 147.486 17.5244 147.789 17.8089C148.111 18.0744 148.273 18.4441 148.273 18.9182C148.273 19.3544 148.121 19.7241 147.817 20.0276C147.514 20.331 147.144 20.4827 146.708 20.4827ZM156.495 39C155.964 39 155.613 38.763 155.442 38.2889L151.005 24.9769C150.759 23.9529 151.033 23.4409 151.83 23.4409C152.342 23.4409 152.702 23.7158 152.911 24.2658L156.552 35.3591L159.908 24.2942C159.984 24.0477 160.107 23.8486 160.278 23.6969C160.468 23.5262 160.705 23.4409 160.989 23.4409C161.539 23.4409 161.899 23.7253 162.07 24.2942L165.341 35.3022L168.953 24.2658C169.143 23.7158 169.494 23.4409 170.006 23.4409C170.423 23.4409 170.708 23.6021 170.859 23.9244C171.011 24.2279 171.011 24.5787 170.859 24.9769L166.422 38.2889C166.27 38.763 165.929 39 165.398 39C165.151 39 164.924 38.9336 164.715 38.8009C164.526 38.6681 164.402 38.4975 164.345 38.2889L160.932 26.968L157.519 38.2889C157.348 38.763 157.007 39 156.495 39ZM180.124 39.1422C178.626 39.1422 177.279 38.8009 176.085 38.1182C174.89 37.4166 173.942 36.4684 173.24 35.2738C172.557 34.0791 172.216 32.7233 172.216 31.2062C172.216 29.7081 172.548 28.3618 173.212 27.1671C173.894 25.9724 174.814 25.0338 175.971 24.3511C177.128 23.6495 178.436 23.2987 179.896 23.2987C181.167 23.2987 182.314 23.5736 183.338 24.1236C184.362 24.6545 185.187 25.3656 185.813 26.2569V17.8942C185.813 17.5529 185.917 17.2874 186.125 17.0978C186.334 16.8892 186.6 16.7849 186.922 16.7849C187.244 16.7849 187.51 16.8892 187.718 17.0978C187.927 17.2874 188.031 17.5529 188.031 17.8942V31.32C187.993 32.7991 187.624 34.136 186.922 35.3307C186.239 36.5064 185.301 37.4356 184.106 38.1182C182.93 38.8009 181.603 39.1422 180.124 39.1422ZM180.124 37.1511C181.224 37.1511 182.2 36.8951 183.053 36.3831C183.926 35.8521 184.608 35.141 185.101 34.2498C185.613 33.3585 185.869 32.344 185.869 31.2062C185.869 30.0874 185.613 29.0824 185.101 28.1911C184.608 27.2809 183.926 26.5698 183.053 26.0578C182.2 25.5458 181.224 25.2898 180.124 25.2898C179.043 25.2898 178.066 25.5458 177.194 26.0578C176.322 26.5698 175.629 27.2809 175.117 28.1911C174.605 29.0824 174.349 30.0874 174.349 31.2062C174.349 32.344 174.605 33.3585 175.117 34.2498C175.629 35.141 176.322 35.8521 177.194 36.3831C178.066 36.8951 179.043 37.1511 180.124 37.1511Z" fill="#60CC5D"/>
<g filter="url(#filter0_i)">
<path d="M98.8829 6L105.817 22.8427H128.254L110.102 33.2521L117.035 50.0948L98.8829 39.6854L80.7304 50.0948L87.664 33.2521L69.5115 22.8427H91.9492L98.8829 6Z" fill="#72C664"/>
</g>
<defs>
<filter id="filter0_i" x="69.5117" y="6" width="58.7427" height="48.0948" filterUnits="userSpaceOnUse" color-interpolation-filters="sRGB">
<feFlood flood-opacity="0" result="BackgroundImageFix"/>
<feBlend mode="normal" in="SourceGraphic" in2="BackgroundImageFix" result="shape"/>
<feColorMatrix in="SourceAlpha" type="matrix" values="0 0 0 0 0 0 0 0 0 0 0 0 0 0 0 0 0 0 127 0" result="hardAlpha"/>
<feOffset dy="4"/>
<feGaussianBlur stdDeviation="2"/>
<feComposite in2="hardAlpha" operator="arithmetic" k2="-1" k3="1"/>
<feColorMatrix type="matrix" values="0 0 0 0 0 0 0 0 0 0 0 0 0 0 0 0 0 0 0.25 0"/>
<feBlend mode="normal" in2="shape" result="effect1_innerShadow"/>
</filter>
</defs>
</svg>